#!OML:ASF H:\ColoradoDance\Project 1\Capture day 1\Session 8\male.ASF
:FULLY-SPECIFIED
:DEGREES
44
upperback -3.634260 -0.191952 2.185950
rfoot -3.570700 -28.312599
lradius 27.657301
lthumb 29.273899 425.507996
rradius 47.620300
lwrist -11.897300
rhand -35.750900 -5.692740
rhumerus -37.609600 -0.476047 -68.305397
lowerneck -1.876730 -10.634500 -3.887550
lhand 3.851460 -322.209015
ltibia 54.834599
head 3.344110 -7.178330 2.325100
rwrist -0.360065
lfingers 7.125020
rtoes -4.977510
lowerback 4.301440 -0.172950 -0.951474
rfingers 7.125020
lclavicle -0.000000 0.000000
upperneck 6.524590 -14.612200 6.875430
rfemur -33.426601 -24.812799 6.715150
thorax -6.185580 -0.006424 2.833350
rclavicle -0.000000 0.000000
rtibia 54.280499
lfoot -13.851000 15.951000
lhumerus -31.162001 1.011260 56.422901
rthumb -8.869430 -35.486301
root -26.921000 18.266899 -31.331301 16.248501 -36.376701 -368.200989
ltoes -4.996890
lfemur -38.161301 30.941299 -2.610050
45
upperback -3.752860 -1.932300 0.833371
rfoot -6.783900 -17.250299
lradius 27.964399
lthumb 28.323299 423.967987
rradius 43.379299
lwrist -8.466840
rhand -37.066002 -7.843750
rhumerus -45.846600 -7.753060 -61.282700
lowerneck -2.142200 -10.368100 -4.108500
lhand 2.856410 -323.910004
ltibia 31.408300
head 4.321710 -7.067810 0.826548
rwrist -2.117880
lfingers 7.125020
rtoes -11.188500
lowerback -5.042260 -1.454860 -2.036050
rfingers 7.125020
lclavicle -0.000000 -0.000000
upperneck 10.378300 -14.095400 2.403890
rfemur -36.586102 -10.675900 16.430099
thorax -0.939262 -0.951639 1.916440
rclavicle -0.000000 -0.000000
rtibia 38.670300
lfoot -18.822599 46.386002
lhumerus -42.398701 5.661630 55.496300
rthumb -10.138300 -37.579498
root -29.226200 19.564800 -33.133900 22.145300 -76.668297 -371.596985
ltoes 23.358999
lfemur -8.026370 7.541500 1.049280
46
upperback -3.072650 -2.848440 -0.691690
rfoot -9.737590 -13.119900
lradius 21.412201
lthumb 31.643200 422.166992
rradius 31.401899
lwrist -17.138201
rhand -37.862400 -6.822080
rhumerus -47.948002 -7.063070 -55.115501
lowerneck -4.954120 -4.597230 0.787023
lhand 6.335710 -325.109985
ltibia 35.244701
head 3.711390 -3.125670 -0.888258
rwrist 6.832580
lfingers 7.125020
rtoes -7.579420
lowerback -0.120397 -2.050470 -2.472500
rfingers 7.125020
lclavicle 0.000000 -0.000000
upperneck 8.963440 -6.187450 -1.392080
rfemur -28.247200 10.180300 15.716300
thorax -3.005690 -1.389760 0.742462
rclavicle 0.000000 -0.000000
rtibia 33.680500
lfoot -12.390300 13.338600
lhumerus -51.098099 14.320900 50.218201
rthumb -10.906500 -36.518799
root -30.943199 20.116800 -34.640499 192.300995 -73.100700 -545.280029
ltoes -0.426768
lfemur -12.814300 -2.075380 -12.736400
47
upperback -2.618260 -3.161000 0.215207
rfoot -14.392300 -3.579940
lradius 20.944099
lthumb 30.893101 423.670990
rradius 27.194799
lwrist -17.999399
rhand -34.891201 -10.201100
rhumerus -56.476398 -11.589200 -52.112701
lowerneck -5.653280 0.668483 5.984070
lhand 5.548630 -323.751007
ltibia 32.351299
head 3.519270 0.216601 -4.131070
rwrist 7.353830
lfingers 7.125020
rtoes -5.164170
lowerback 0.685829 -2.333720 -0.786668
rfingers 7.125020
lclavicle -0.000000 -0.000000
upperneck 8.434350 1.146090 -10.453200
rfemur -23.245199 14.983900 17.854500
thorax -3.017400 -1.569150 0.764477
rclavicle -0.000000 -0.000000
rtibia 34.924599
lfoot -11.773000 4.674910
lhumerus -51.807999 16.626900 46.235600
rthumb -8.039730 -40.028198
root -32.313000 20.135799 -35.524700 189.052002 -58.148899 -543.510986
ltoes 2.945040
lfemur -22.153799 -8.822090 -14.518900
48
upperback -2.407720 -3.944320 1.202100
rfoot -17.098499 1.628660
lradius 20.872299
lthumb 28.225201 425.282013
rradius 20.934200
lwrist -17.231501
rhand -24.135599 0.830397
rhumerus -57.590698 -15.003200 -59.565899
lowerneck -4.760460 4.508500 8.827160
lhand 2.753730 -322.613007
ltibia 31.488300
head 3.239760 2.697470 -5.556070
rwrist 14.670000
lfingers 7.125020
rtoes -5.503060
lowerback 0.588097 -2.945610 -0.267137
rfingers 7.125020
lclavicle 0.000000 0.000000
upperneck 5.814290 6.216540 -14.332000
rfemur -22.772800 18.121099 16.803499
thorax -2.697430 -1.964140 1.495900
rclavicle 0.000000 0.000000
rtibia 35.283001
lfoot -16.401300 13.285800
lhumerus -52.159302 19.409000 44.858898
rthumb 2.346420 -29.136400
root -33.207100 20.106600 -35.688301 189.235992 -48.559200 -542.627014
ltoes 14.169800
lfemur -23.546499 -6.340240 -16.157900
49
upperback -2.732320 -3.193890 1.515520
rfoot -20.472700 -5.182710
lradius 22.153299
lthumb 30.930099 421.212006
rradius 22.529800
lwrist -13.666200
rhand -31.753500 9.745470
rhumerus -56.579601 -13.808400 -68.402100
lowerneck -4.844500 0.991454 4.690220
lhand 5.587370 -326.203003
ltibia 32.287601
head 3.228870 0.467936 -3.630870
rwrist 15.494500
lfingers 7.125020
rtoes -9.011320
lowerback 1.162720 -2.408140 0.772160
rfingers 7.125020
lclavicle -0.000000 0.000000
upperneck 7.831420 1.602650 -9.624900
rfemur -17.407700 17.649300 17.106701
thorax -3.415020 -1.610500 1.258090
rclavicle -0.000000 0.000000
rtibia 36.960300
lfoot -14.186400 9.699200
lhumerus -48.760700 18.885700 58.872101
rthumb -5.010670 -20.175301
root -34.166599 19.948799 -35.392399 186.063004 -55.490799 -541.796997
ltoes 17.255199
lfemur -20.155001 -6.392490 -18.180000
50
upperback -1.573640 -3.295680 -0.015382
rfoot -18.242001 -15.782400
lradius 21.688101
lthumb 30.608101 422.220001
rradius 23.361700
lwrist -16.100201
rhand -31.438200 -6.116850
rhumerus -56.361599 -11.129000 -63.490501
lowerneck -4.464580 -4.788260 -0.808256
lhand 5.249700 -325.256012
ltibia 35.498100
head 3.712790 -3.286790 -1.499400
rwrist 15.379400
lfingers 7.125020
rtoes -11.863900
lowerback 2.187130 -2.446710 -0.737381
rfingers 7.125020
lclavicle -0.000000 -0.000000
upperneck 9.334110 -6.117770 -4.116060
rfemur -23.397800 8.842830 15.322900
thorax -2.799600 -1.631470 0.546508
rclavicle -0.000000 -0.000000
rtibia 55.968899
lfoot -13.937600 -6.181230
lhumerus -47.590801 13.796700 64.068199
rthumb -4.706230 -36.044601
root -34.910500 19.676901 -34.897701 190.337006 -72.437302 -552.249023
ltoes -1.864280
lfemur -16.018400 -5.126330 -25.357599
